<?xml version="1.0" standalone="no"?>
<!DOCTYPE svg PUBLIC "-//W3C//DTD SVG 20010904//EN"
 "http://www.w3.org/TR/2001/REC-SVG-20010904/DTD/svg10.dtd">
<svg version="1.0" xmlns="http://www.w3.org/2000/svg"
 width="2048.000000pt" height="1952.000000pt" viewBox="0 0 2048.000000 1952.000000"
 preserveAspectRatio="xMidYMid meet">
<metadata>
Created by potrace 1.16, written by Peter Selinger 2001-2019
</metadata>
<g transform="translate(0.000000,1952.000000) scale(0.100000,-0.100000)"
fill="#000000" stroke="none">
<path d="M3965 19509 c-78 -11 -202 -63 -319 -134 -45 -27 -193 -170 -207
-200 -5 -11 -22 -40 -38 -65 -41 -63 -98 -180 -106 -215 -4 -17 -11 -39 -16
-50 -5 -11 -15 -46 -24 -79 -18 -72 -29 -86 -69 -86 -36 0 -56 15 -56 42 0 10
-4 18 -10 18 -5 0 -11 38 -12 84 l-3 85 -84 -57 c-46 -31 -93 -62 -105 -69
-30 -17 -228 -185 -278 -236 -57 -59 -208 -233 -208 -241 0 -3 -17 -30 -37
-59 -36 -50 -183 -330 -183 -348 0 -4 -11 -32 -24 -61 -14 -29 -28 -67 -32
-83 -4 -17 -10 -34 -14 -40 -4 -5 -15 -46 -24 -90 -10 -44 -22 -89 -26 -100
-9 -19 -21 -80 -57 -290 -23 -133 -23 -849 1 -1060 9 -82 23 -224 31 -315 9
-91 20 -174 25 -185 5 -11 16 -94 24 -185 9 -91 18 -187 22 -215 12 -102 15
-438 5 -448 -6 -6 -11 -34 -11 -62 0 -70 -28 -257 -40 -269 -6 -6 -10 -19 -10
-31 -1 -29 -66 -211 -88 -243 -10 -15 -23 -38 -29 -52 -6 -14 -27 -46 -47 -73
-20 -26 -36 -51 -36 -55 0 -5 -20 -35 -45 -66 -25 -32 -45 -61 -45 -65 0 -3
-21 -36 -47 -72 -27 -37 -55 -77 -63 -89 -8 -12 -30 -41 -47 -64 -18 -22 -33
-47 -33 -53 0 -7 -5 -13 -10 -13 -6 0 -14 -10 -19 -23 -5 -12 -27 -46 -50 -74
-22 -29 -41 -55 -41 -58 0 -4 -20 -35 -45 -71 -25 -35 -45 -66 -45 -69 0 -2
-25 -42 -55 -87 -83 -124 -95 -144 -95 -152 0 -4 -18 -31 -39 -60 -22 -29 -47
-68 -55 -87 -8 -19 -31 -61 -51 -94 -20 -33 -39 -67 -42 -75 -4 -8 -9 -17 -12
-20 -7 -6 -20 -30 -106 -195 -35 -66 -77 -145 -94 -175 -17 -30 -50 -93 -73
-140 -24 -47 -46 -87 -49 -90 -3 -3 -12 -22 -20 -42 -7 -21 -16 -38 -20 -38
-4 0 -15 -23 -25 -50 -10 -27 -22 -50 -26 -50 -4 0 -8 -5 -8 -11 0 -5 -12 -36
-26 -67 -14 -31 -37 -82 -51 -112 -14 -30 -33 -73 -43 -95 -10 -22 -33 -74
-50 -115 -17 -41 -40 -93 -50 -116 -11 -23 -20 -45 -20 -50 0 -5 -8 -25 -19
-44 -10 -19 -22 -51 -26 -70 -4 -19 -13 -45 -20 -56 -8 -12 -21 -50 -30 -85
-9 -35 -20 -68 -25 -74 -4 -5 -13 -35 -20 -65 -7 -30 -16 -59 -20 -65 -4 -5
-15 -44 -25 -85 -10 -41 -21 -79 -25 -85 -5 -5 -14 -39 -20 -75 -7 -36 -16
-69 -20 -75 -4 -5 -15 -55 -24 -110 -10 -55 -21 -109 -26 -120 -5 -11 -16 -76
-25 -145 -8 -69 -22 -170 -30 -225 -33 -233 -27 -761 10 -935 8 -36 19 -101
25 -145 6 -44 15 -89 20 -100 5 -11 16 -56 25 -99 8 -44 19 -84 24 -90 4 -6
11 -24 15 -41 8 -31 19 -58 66 -160 15 -33 33 -71 39 -85 6 -14 24 -47 39 -75
16 -27 39 -68 51 -90 20 -36 93 -144 191 -281 45 -64 355 -374 374 -374 4 0
45 -31 91 -70 46 -38 89 -70 94 -70 6 0 11 -5 11 -11 0 -6 14 -27 30 -46 17
-19 33 -48 37 -64 3 -16 10 -32 14 -35 12 -7 11 -110 0 -132 -5 -9 -17 -42
-26 -72 -15 -53 -29 -87 -64 -160 -10 -19 -24 -55 -31 -80 -8 -25 -17 -47 -20
-50 -4 -3 -12 -23 -17 -45 -6 -22 -21 -65 -33 -95 -13 -34 -24 -88 -27 -143
-3 -48 -10 -90 -14 -93 -12 -7 -11 -48 0 -59 5 -6 12 -35 15 -65 4 -30 13 -82
22 -115 8 -33 22 -89 30 -125 8 -36 19 -74 24 -85 5 -11 16 -49 25 -85 9 -36
20 -74 25 -85 5 -11 14 -60 21 -110 6 -49 15 -94 19 -100 4 -5 11 -46 15 -90
3 -44 8 -87 10 -95 2 -8 6 -53 10 -100 3 -47 10 -96 14 -110 5 -14 15 -61 21
-105 7 -44 18 -89 26 -100 8 -11 14 -26 14 -35 0 -8 20 -40 44 -71 47 -59 140
-124 195 -135 17 -4 31 -10 31 -14 0 -8 106 -27 200 -36 36 -3 74 -9 85 -14
22 -10 202 -30 265 -30 l39 0 22 72 c32 105 68 174 128 243 25 29 116 92 153
106 23 9 43 20 45 25 2 5 -11 18 -29 29 -71 41 -138 96 -138 114 0 10 10 31
22 46 19 25 26 27 69 22 49 -6 127 -40 209 -92 46 -29 180 -159 180 -176 0 -5
15 -30 33 -56 39 -55 78 -137 102 -208 23 -72 35 -84 86 -88 24 -1 49 -6 55
-10 20 -12 311 -24 467 -19 44 2 47 4 47 30 -1 15 -9 45 -20 67 -11 22 -19 45
-20 50 -1 39 -109 198 -179 263 -61 57 -170 130 -243 164 -16 7 -28 16 -28 20
0 4 -6 8 -13 8 -43 0 -75 92 -42 120 16 13 107 8 129 -8 6 -4 37 -16 69 -27
31 -10 57 -22 57 -27 0 -4 5 -8 12 -8 19 0 109 -61 166 -112 30 -27 63 -48 76
-48 13 0 38 17 63 45 53 56 129 115 151 115 23 1 65 37 57 50 -11 18 -168 88
-225 100 -30 6 -64 15 -75 20 -11 5 -91 16 -177 24 -86 8 -165 19 -175 25 -10
5 -43 14 -73 21 -30 7 -64 19 -75 26 -11 8 -26 14 -33 14 -27 0 -212 143 -212
164 0 3 -19 32 -43 63 -45 62 -117 199 -117 226 0 8 -4 17 -8 19 -4 1 -16 32
-25 68 -10 36 -25 84 -34 108 l-16 42 -146 0 c-154 0 -214 9 -239 34 -14 13
-12 19 12 50 19 25 37 37 64 42 20 4 42 10 47 14 6 3 48 12 95 20 47 7 99 18
115 25 17 7 46 18 65 25 92 33 255 121 375 203 147 101 455 408 489 488 6 13
13 26 17 29 10 7 83 156 109 220 12 30 26 62 30 72 5 9 16 45 25 80 9 34 20
68 25 73 5 6 14 39 20 75 6 36 15 70 20 75 16 21 35 257 34 435 -1 178 -18
394 -34 415 -4 6 -13 46 -20 90 -7 44 -16 85 -20 90 -4 6 -15 43 -24 83 -10
40 -24 85 -32 100 -7 15 -14 32 -14 39 0 18 -47 127 -107 248 -77 156 -93 185
-135 242 -21 28 -38 54 -38 58 0 9 -166 212 -197 241 -13 12 -23 25 -23 30 0
11 -152 164 -162 164 -4 0 -25 17 -46 38 -22 20 -46 42 -54 47 -8 6 -42 31
-74 57 -33 27 -65 48 -71 48 -7 0 -13 3 -13 8 0 8 -17 18 -175 109 -60 35
-116 63 -122 63 -7 0 -13 5 -13 10 0 6 -6 10 -14 10 -19 0 -76 48 -76 64 0 7
11 23 25 36 22 20 31 22 85 17 33 -3 66 -9 73 -14 7 -5 32 -16 56 -23 117 -37
331 -164 481 -286 98 -79 285 -259 303 -290 10 -18 83 -111 157 -201 6 -7 10
-15 10 -19 0 -3 16 -28 35 -54 19 -26 35 -50 35 -53 0 -3 15 -27 33 -54 34
-51 53 -84 105 -190 59 -119 80 -167 87 -196 4 -15 10 -27 14 -27 4 0 15 -35
25 -77 10 -43 22 -82 26 -88 4 -5 13 -39 20 -75 6 -36 15 -69 20 -75 4 -5 8
-17 8 -25 6 -68 40 -299 48 -315 14 -32 12 -511 -3 -527 -7 -6 -13 -27 -13
-45 0 -49 -29 -235 -39 -247 -4 -6 -13 -39 -20 -73 -7 -34 -18 -75 -26 -90 -8
-15 -20 -49 -26 -75 -7 -26 -16 -48 -21 -48 -4 0 -8 -4 -8 -10 0 -23 -111
-251 -136 -281 -8 -8 -14 -24 -14 -34 0 -17 15 -18 344 -12 190 3 353 10 363
16 10 5 83 17 163 26 79 9 149 20 155 24 5 5 46 14 90 21 44 6 85 16 90 20 6
5 39 14 75 20 36 7 79 18 95 25 17 7 50 18 75 25 25 7 56 18 70 25 14 7 41 16
60 20 77 16 460 207 563 281 26 19 50 34 54 34 9 0 131 91 158 118 12 12 26
22 30 22 15 0 211 188 297 285 114 129 118 134 118 141 0 5 55 82 80 111 5 7
10 15 10 19 0 3 16 28 35 54 19 26 35 51 35 54 0 4 12 25 27 49 42 65 113 210
113 230 0 9 4 17 9 17 5 0 12 12 16 27 3 15 15 45 25 68 10 22 24 60 31 85 7
25 16 50 20 55 4 6 15 41 23 79 9 38 20 74 25 80 5 6 14 43 21 81 8 39 17 75
21 80 4 6 15 60 24 120 9 61 21 119 25 130 27 63 65 774 42 797 -5 5 -21 2
-38 -7 -29 -15 -75 -34 -104 -42 -73 -21 -283 -23 -1703 -21 -1256 2 -1567 6
-1579 16 -9 7 -20 12 -24 11 -5 -1 -31 7 -57 19 -53 24 -144 109 -170 160 -9
17 -25 47 -34 65 -16 29 -18 76 -21 487 l-2 455 -43 -1 c-51 -2 -204 -31 -232
-44 -11 -5 -47 -17 -80 -26 -78 -21 -175 -52 -200 -64 -76 -36 -412 -53 -582
-29 -133 18 -301 112 -434 242 -32 32 -59 60 -59 62 0 3 -20 31 -44 62 -24 32
-49 77 -56 101 -7 23 -16 42 -20 42 -4 0 -15 35 -25 78 -11 42 -24 83 -29 91
-14 18 -21 361 -9 416 6 27 15 41 27 43 26 5 34 -12 42 -88 3 -36 10 -70 15
-75 4 -6 15 -44 25 -85 9 -41 20 -79 24 -85 4 -5 10 -23 14 -40 4 -16 16 -48
27 -72 10 -23 19 -44 19 -48 0 -13 46 -103 72 -142 15 -23 28 -45 28 -50 0
-14 140 -151 168 -166 57 -28 68 -34 108 -55 23 -12 62 -24 85 -28 24 -4 50
-12 58 -18 19 -15 353 -15 372 0 8 6 50 17 93 23 44 6 84 15 90 20 6 4 43 16
81 26 39 10 75 21 80 25 6 4 46 16 90 25 44 10 87 21 96 26 8 4 64 13 125 19
60 6 118 15 129 20 11 4 60 13 109 18 99 11 139 32 144 75 5 38 -80 121 -139
137 -24 7 -48 16 -54 20 -5 4 -33 15 -61 23 -28 8 -60 20 -70 25 -11 6 -34 16
-52 23 -36 13 -92 74 -92 100 0 34 44 49 143 49 51 0 97 -4 102 -9 6 -4 52
-14 104 -21 87 -12 95 -12 107 4 8 12 10 25 4 39 -5 12 -11 34 -14 49 -21 95
-166 158 -369 158 -86 0 -222 -16 -252 -30 -11 -5 -47 -14 -80 -21 -33 -6 -64
-15 -70 -19 -19 -14 -156 -42 -206 -42 -35 0 -59 6 -78 19 -25 20 -26 24 -29
139 -1 65 1 128 7 139 5 11 14 62 21 114 7 52 16 102 20 110 5 9 16 45 25 81
41 163 126 271 155 196 8 -23 -1 -175 -14 -206 -5 -14 -36 -335 -36 -379 0
-16 6 -21 24 -21 14 0 27 4 30 9 3 4 33 14 67 20 34 7 69 16 78 21 22 12 187
40 236 40 23 0 46 5 52 11 7 7 35 10 72 7 l61 -4 0 458 c0 431 6 538 29 558 3
3 14 21 25 41 26 53 81 102 161 146 l70 38 1148 3 c631 1 1147 5 1147 7 0 3
-12 23 -26 45 -51 77 -174 317 -174 340 0 8 -7 27 -15 43 -7 15 -19 64 -26
110 -6 45 -15 87 -19 92 -4 6 -11 25 -15 43 -9 43 -34 52 -136 52 -44 0 -87 4
-97 9 -9 5 -91 15 -182 21 -91 7 -174 15 -185 20 -11 4 -85 15 -165 25 -80 9
-152 19 -160 22 -8 4 -55 14 -105 24 -131 25 -268 59 -280 68 -5 5 -35 14 -65
22 -30 7 -64 18 -75 25 -11 6 -40 16 -65 22 -25 6 -92 35 -150 65 -134 68
-140 71 -229 137 -40 30 -85 61 -98 68 -13 8 -27 21 -30 30 -4 10 -19 30 -34
46 -28 29 -89 141 -89 163 0 12 67 -20 170 -80 25 -15 57 -32 73 -39 15 -7 27
-15 27 -19 0 -9 271 -142 330 -162 25 -8 59 -22 75 -31 17 -9 35 -16 41 -16 6
0 31 -9 55 -19 25 -11 67 -25 94 -31 28 -6 59 -15 70 -20 38 -17 347 -79 401
-80 16 0 34 -4 40 -9 9 -9 146 -24 329 -37 50 -4 95 -10 100 -14 6 -4 105 -13
220 -20 116 -6 219 -16 230 -20 74 -31 1223 -33 1289 -2 12 5 63 15 115 22 52
7 102 16 110 20 9 5 50 16 91 26 41 9 84 23 95 30 11 8 26 14 33 14 19 0 188
82 235 114 21 14 42 26 46 26 10 0 189 174 211 205 31 42 80 152 86 191 11 70
-37 134 -100 134 -32 0 -79 -32 -141 -94 -73 -75 -168 -109 -227 -81 -49 23
-80 42 -87 53 -11 18 -76 52 -99 52 -33 0 -145 -31 -157 -44 -10 -10 -44 -30
-108 -64 -20 -10 -51 -13 -101 -10 -65 3 -76 6 -117 40 -59 49 -87 58 -173 58
-83 0 -109 -7 -222 -61 -137 -66 -206 -54 -294 50 -79 93 -143 104 -256 45
-83 -43 -172 -56 -220 -31 -16 8 -60 46 -99 84 -38 38 -88 77 -110 87 -22 9
-48 21 -58 27 -50 27 -193 26 -221 -2 -16 -15 -80 -10 -116 8 -19 9 -71 54
-117 100 -46 45 -88 83 -94 83 -13 0 -171 103 -229 149 -25 20 -61 47 -80 60
-137 95 -442 399 -470 469 -5 12 -14 22 -20 22 -5 0 -10 5 -10 10 0 6 -22 41
-50 77 -27 36 -50 70 -50 75 0 5 -11 25 -24 46 -13 20 -27 52 -31 70 -14 70
-76 101 -135 68 -117 -65 -143 -69 -148 -22 -7 61 45 130 127 169 36 17 64 22
132 22 47 0 92 -5 100 -11 8 -6 29 -16 47 -22 59 -20 154 -95 331 -259 96 -90
180 -163 188 -163 7 0 13 -5 13 -10 0 -6 8 -13 18 -17 9 -3 38 -21 63 -40 26
-18 51 -33 57 -33 6 0 12 -3 14 -7 2 -5 19 -16 38 -25 19 -10 42 -22 50 -27 8
-5 51 -24 95 -41 44 -18 91 -38 105 -45 14 -7 46 -18 73 -26 26 -7 47 -16 47
-20 0 -4 15 -10 33 -13 17 -3 45 -13 61 -21 16 -8 56 -22 90 -31 33 -9 66 -19
71 -24 6 -4 39 -14 75 -20 36 -7 70 -16 75 -20 6 -5 48 -16 95 -25 47 -9 92
-20 100 -25 9 -4 60 -15 115 -24 55 -10 107 -21 116 -26 9 -4 60 -14 115 -20
54 -7 108 -16 119 -21 24 -11 313 -39 401 -39 35 0 66 -4 69 -10 4 -6 150 -10
405 -10 255 0 401 4 405 10 3 6 38 10 76 10 88 0 342 18 429 30 178 25 275 42
280 49 3 4 36 13 74 20 39 8 92 26 120 40 59 30 172 133 182 164 4 12 10 24
14 27 16 12 53 153 67 260 8 63 20 126 27 139 15 33 16 722 0 742 -6 8 -17 58
-24 113 -6 54 -18 119 -25 145 -7 25 -19 73 -25 106 -7 33 -16 65 -20 70 -4 6
-13 28 -20 49 -23 70 -89 186 -177 310 -34 46 -231 236 -247 236 -6 0 -29 14
-50 30 -22 17 -45 30 -52 30 -7 0 -14 3 -16 8 -5 11 -64 42 -82 42 -9 0 -16 5
-16 10 0 6 -4 10 -9 10 -5 0 -26 8 -47 17 -22 9 -41 17 -44 18 -3 0 -14 6 -25
12 -11 6 -37 14 -58 18 -20 4 -39 11 -42 15 -3 5 -49 16 -103 25 -53 9 -106
20 -117 25 -11 5 -65 14 -120 20 -55 6 -109 15 -120 20 -11 5 -76 16 -145 25
-69 8 -134 20 -145 25 -11 5 -51 16 -90 25 -193 45 -231 55 -250 63 -11 6 -74
27 -140 48 -66 21 -124 40 -130 44 -5 4 -37 15 -70 25 -33 10 -64 21 -70 25
-5 4 -32 13 -60 20 -27 7 -55 17 -61 22 -6 4 -36 15 -65 24 -30 8 -63 19 -74
24 -28 13 -98 38 -180 64 -38 13 -77 26 -85 29 -15 7 -95 27 -210 54 -88 21
-301 23 -324 4 -9 -8 -13 -17 -8 -20 4 -3 15 -28 25 -56 9 -27 23 -68 30 -90
8 -22 13 -51 12 -65 -2 -14 -4 -35 -4 -48 -1 -30 -44 -51 -66 -32 -18 15 -75
98 -75 109 0 4 -16 29 -35 54 -19 25 -35 48 -35 50 0 18 -170 197 -187 197 -7
0 -16 6 -19 14 -9 25 -97 75 -259 147 -150 67 -355 93 -530 68z m526 -1051
c69 -32 107 -64 152 -130 l36 -53 6 -203 c5 -162 4 -203 -7 -207 -7 -2 -151
-6 -320 -7 -239 -3 -309 -1 -312 9 -3 6 -5 106 -4 220 1 146 5 215 14 233 28
56 133 136 209 160 53 17 166 6 226 -22z m244 -715 c-15 -46 -30 -83 -36 -83
-12 0 -12 17 1 22 13 5 25 88 12 88 -6 0 -13 -10 -15 -22 -2 -13 -5 3 -6 35
-1 39 3 57 12 58 6 1 19 2 27 3 12 1 16 23 20 111 l5 110 3 -119 c2 -106 0
-129 -23 -203z m-735 97 c40 0 40 0 39 -37 0 -21 -3 -32 -6 -25 -7 17 -23 15
-23 -3 0 -26 -17 -16 -28 18 l-11 32 3 -35 c3 -19 6 -42 9 -50 3 -8 8 -25 12
-37 4 -13 11 -23 15 -23 5 0 6 -9 3 -20 -4 -14 0 -20 12 -20 9 0 15 -6 12 -12
-2 -7 7 -31 21 -53 22 -35 22 -38 4 -22 -30 28 -88 145 -101 205 -6 29 -10
103 -9 165 l2 112 3 -97 4 -98 39 0z m3333 -82 c59 -18 137 -100 181 -191 33
-66 37 -83 34 -139 -3 -58 -5 -63 -27 -66 -37 -6 -64 6 -86 36 -12 17 -13 22
-4 15 20 -16 33 -5 17 14 -6 7 -8 16 -4 20 3 3 6 1 6 -5 0 -7 5 -12 10 -12 6
0 10 7 10 15 0 8 4 15 8 15 5 0 9 -13 9 -30 0 -19 -5 -30 -14 -30 -16 0 -13
-22 4 -27 24 -8 33 68 11 95 -6 7 -8 15 -4 19 3 3 6 1 6 -5 0 -7 5 -12 10 -12
7 0 7 6 0 20 -7 14 -7 20 0 20 5 0 10 -7 10 -15 0 -8 5 -15 11 -15 6 0 8 7 5
16 -3 9 -9 28 -12 42 -4 15 -13 33 -22 39 -9 7 -13 16 -9 19 6 7 1 15 -58 80
-22 24 -45 44 -51 44 -7 0 -14 5 -16 11 -6 17 -104 24 -113 8 -6 -9 -3 -11 10
-5 11 4 22 2 27 -6 11 -18 10 -138 -2 -138 -5 0 -7 -7 -4 -15 4 -8 1 -15 -5
-15 -6 0 -11 5 -11 11 0 7 -10 9 -25 5 -25 -6 -25 -6 -25 57 0 36 5 68 12 75
9 9 9 12 0 12 -17 0 -33 -37 -39 -89 -4 -41 -1 -50 30 -85 31 -37 35 -39 65
-28 18 6 32 7 32 2 0 -13 -57 -23 -74 -13 -38 21 -66 76 -66 128 0 57 16 87
64 116 37 22 46 23 99 7z m1089 -50 c38 -72 23 -223 -27 -278 -23 -25 -76 -26
-98 -2 -23 25 -40 125 -33 185 14 121 114 181 158 95z m-4293 -217 c16 -16 43
-37 60 -45 17 -9 31 -19 31 -21 0 -3 -17 3 -37 14 -36 18 -105 81 -90 81 4 0
20 -13 36 -29z m151 -81 c20 -6 21 -8 5 -8 -11 0 -29 3 -40 8 -25 11 1 11 35
0z M4649 18288 c-5 -26 -6 -58 -1 -58 13 0 37 20 25 20 -7 0 -10 6 -7 14 3 8
1 17 -5 21 -6 3 -11 5 -12 3z M4396 18209 c-60 -47 -75 -139 -32 -202 16 -22
20 -37 13 -40 -8 -2 -8 -5 1 -11 7 -4 12 -3 12 3 0 7 16 9 43 5 127 -16 191
170 84 244 -41 28 -86 28 -121 1z M4542 17993 c-24 -27 -27 -33 -13 -33 9 0
45 50 39 55 -2 2 -13 -8 -26 -22z M4713 17811 c-10 -15 -9 -20 1 -24 9 -4 16
3 19 19 5 29 -4 31 -20 5z M7518 17464 c-8 -7 2 -44 12 -44 4 0 5 11 2 25 -5
27 -6 28 -14 19z M7517 17404 c-4 -4 -7 -14 -7 -23 0 -11 3 -12 11 -4 6 6 10
16 7 23 -2 6 -7 8 -11 4z M8370 17730 c0 -5 -6 -7 -12 -5 -33 11 -78 -59 -82
-126 -4 -71 6 -115 27 -111 9 2 17 -2 17 -8 0 -5 -3 -9 -7 -7 -5 1 -8 -2 -9
-8 0 -5 7 -9 17 -7 9 2 20 -2 24 -9 5 -8 1 -9 -14 -4 -11 3 -21 2 -21 -3 0
-19 45 -22 69 -4 33 25 49 74 50 156 1 53 -4 77 -21 107 -21 37 -38 50 -38 29z
M5845 19350 c-3 -5 -18 -10 -33 -11 -34 -1 -95 -22 -99 -35 -3 -10 56 -39 104
-50 15 -4 33 -10 38 -14 6 -4 37 -16 70 -26 33 -10 62 -22 65 -26 3 -4 35 -15
70 -23 36 -9 79 -23 97 -31 17 -8 38 -14 47 -14 8 0 32 -9 53 -19 49 -26 93
-36 93 -23 0 18 -76 107 -131 154 -62 52 -145 94 -207 104 -23 4 -45 11 -48
15 -7 12 -111 11 -119 -1z M4967 15983 c-11 -10 -8 -51 3 -58 6 -3 10 -23 10
-44 0 -80 42 -171 86 -185 20 -6 75 19 127 58 43 31 137 118 137 125 0 4 -30
12 -67 19 -38 7 -72 17 -77 23 -6 5 -18 9 -29 9 -10 0 -52 14 -94 30 -80 32
-86 34 -96 23z M5543 15794 c3 -11 9 -35 12 -54 4 -19 11 -39 14 -45 4 -5 13
-30 20 -55 17 -61 69 -170 80 -170 6 0 12 4 16 9 3 5 28 17 55 26 45 15 140
88 140 108 0 4 12 25 26 47 25 37 29 75 9 75 -6 0 -15 3 -20 7 -6 3 -48 12
-95 18 -47 7 -89 16 -95 20 -5 4 -30 10 -55 14 -25 4 -60 9 -79 13 -29 5 -33
3 -28 -13z M8108 15745 c-7 -7 -37 -13 -138 -26 -46 -5 -88 -15 -92 -21 -3 -7
-1 -23 5 -37 35 -75 70 -139 90 -164 l22 -28 35 26 c41 30 99 103 100 125 0 9
6 25 14 36 8 11 17 37 21 57 7 36 6 37 -22 37 -16 0 -32 -2 -35 -5z M6116
15701 c-4 -5 -2 -12 4 -16 5 -3 10 -19 10 -34 0 -29 19 -92 30 -101 3 -3 12
-25 20 -50 8 -25 27 -58 41 -75 26 -29 27 -29 70 -15 75 24 199 129 199 167 0
6 6 13 14 16 12 5 32 55 24 62 -2 2 -64 9 -138 15 -74 7 -139 16 -145 20 -17
13 -123 22 -129 11z M7514 15669 c-153 -10 -184 -19 -184 -51 0 -41 11 -65 34
-76 13 -6 32 -30 43 -54 12 -23 30 -51 41 -61 19 -18 21 -17 71 8 67 36 178
166 184 217 3 28 -6 29 -189 17z M6725 15638 c-3 -8 1 -30 10 -49 16 -36 23
-48 68 -116 15 -23 27 -46 27 -52 0 -16 37 -32 62 -27 38 7 98 36 98 46 0 6 6
10 14 10 17 0 89 77 110 118 30 58 28 59 -116 66 -73 4 -163 9 -200 12 -53 4
-69 3 -73 -8z M5030 13530 c-877 -3 -1553 -9 -1563 -14 -30 -14 -65 -53 -89
-99 -23 -42 -23 -45 -24 -502 0 -253 1 -466 4 -472 2 -7 9 -13 16 -13 15 0
100 -43 104 -52 2 -5 10 -8 17 -8 23 0 112 -97 140 -152 49 -96 53 -246 8
-314 -12 -19 -11 -26 9 -65 19 -36 23 -60 23 -130 0 -77 -3 -90 -27 -127 -16
-23 -28 -46 -28 -52 0 -5 -5 -10 -11 -10 -6 0 -27 -13 -46 -30 -18 -16 -41
-30 -49 -30 -9 0 -30 -6 -47 -14 -18 -8 -49 -17 -69 -21 l-38 -6 -1 -357 c-1
-451 1 -511 10 -531 5 -9 16 -33 26 -53 20 -42 75 -84 132 -101 27 -8 466 -12
1581 -14 1390 -3 1549 -2 1598 13 62 18 113 58 153 119 l26 40 3 440 c2 242
-1 458 -5 479 -7 32 -14 41 -38 48 -105 32 -204 113 -232 190 -17 47 -16 158
2 208 8 24 31 62 50 86 19 23 35 49 35 58 0 8 -18 35 -40 61 -49 56 -64 109
-58 203 4 55 10 80 27 100 12 15 26 36 32 47 11 21 111 95 127 95 5 0 23 7 38
15 16 8 37 15 47 15 17 0 18 18 15 378 -2 263 -6 383 -14 393 -7 8 -15 29 -19
48 -9 44 -74 107 -122 120 -21 5 -65 11 -98 13 -33 1 -755 1 -1605 -2z m246
-435 c40 -15 99 -65 76 -65 -9 0 -12 -59 -12 -225 0 -207 -1 -225 -17 -226
-15 0 -14 -3 5 -16 12 -8 22 -21 22 -28 0 -7 25 -36 56 -64 l55 -51 223 0
c221 0 224 0 239 -22 l16 -23 0 24 c1 20 3 22 16 11 9 -7 18 -11 20 -8 5 5
-17 30 -119 136 -28 28 -48 52 -46 52 3 0 70 -66 150 -147 80 -81 125 -130
100 -108 -24 22 -48 44 -52 50 -4 5 -6 -180 -4 -413 2 -233 6 -426 10 -429 3
-3 16 2 28 13 13 10 -15 -22 -62 -71 -47 -50 -106 -112 -130 -139 -46 -49
-180 -168 -147 -130 9 11 17 24 17 27 0 4 -85 7 -190 7 l-190 0 0 -190 c0
-104 4 -190 8 -190 4 0 12 3 18 8 5 4 -4 -5 -21 -20 -36 -33 -83 -48 -150 -48
-121 0 -160 28 -495 356 -545 533 -619 610 -651 677 -35 75 -38 134 -9 211 17
45 47 81 177 215 112 116 161 160 172 156 19 -8 293 -7 300 0 3 3 5 77 6 164
l2 159 159 157 c87 86 176 166 196 176 74 38 146 42 224 14z m479 -445 c50
-51 41 -52 -16 0 -24 22 -39 40 -34 40 6 0 29 -18 50 -40z m-1331 -194 c-3 -9
-12 -16 -20 -16 -11 0 -10 4 4 18 20 22 25 21 16 -2z m1862 -352 c26 -38 37
-65 41 -106 7 -74 -4 -142 -28 -170 l-20 -23 18 35 c13 25 18 58 18 115 0 75
-2 83 -37 137 -20 31 -54 76 -75 100 l-37 43 42 -40 c24 -22 59 -63 78 -91z
m-781 -1094 c-10 -11 -20 -18 -23 -16 -5 6 21 35 32 36 5 0 1 -9 -9 -20z
M5019 12533 c-76 -75 -139 -131 -139 -125 0 8 -29 12 -94 12 l-95 0 -3 -101
c-2 -56 1 -103 5 -106 5 -3 -40 -54 -100 -114 -115 -117 -126 -131 -121 -155
2 -8 107 -119 233 -247 127 -127 208 -211 181 -187 -28 25 -83 78 -123 118
-74 73 -90 84 -79 57 3 -8 6 -109 7 -225 l1 -210 220 0 219 0 -6 23 c-4 13 -3
17 2 10 18 -25 64 -34 94 -19 16 8 27 11 24 6 -7 -11 28 -19 59 -13 23 5 26
10 26 43 0 21 -5 40 -10 42 -11 3 28 45 357 380 169 172 193 201 193 229 0 28
-27 59 -237 272 -367 371 -446 447 -463 447 -7 0 -75 -62 -151 -137z m-149
-146 c0 -2 -17 -19 -37 -38 l-38 -34 34 38 c33 34 41 42 41 34z m-116 -122
c-23 -25 -46 -45 -50 -45 -5 0 12 20 36 45 24 25 47 45 51 45 4 0 -13 -20 -37
-45z M7105 12581 c-5 -10 32 -41 49 -41 20 0 76 -52 76 -70 0 -27 -42 -52 -98
-57 -26 -2 -56 -8 -67 -13 -11 -4 -65 -13 -119 -19 -144 -17 -191 -53 -169
-133 9 -29 67 -74 111 -84 15 -4 32 -11 38 -15 6 -5 46 -16 90 -25 43 -9 84
-20 89 -24 6 -4 30 -13 55 -20 52 -14 100 -45 100 -65 0 -31 -30 -42 -152 -55
-67 -7 -127 -16 -133 -20 -5 -5 -32 -11 -58 -15 -31 -5 -64 -19 -90 -39 -36
-28 -42 -38 -45 -75 -4 -60 21 -85 101 -101 34 -6 71 -16 82 -21 11 -4 65 -13
120 -19 55 -7 104 -16 109 -21 6 -5 20 -9 31 -9 12 0 30 -9 40 -20 18 -20 18
-21 -5 -45 -12 -13 -35 -27 -51 -30 -16 -4 -29 -10 -29 -15 0 -4 -13 -10 -29
-13 -44 -9 -61 -32 -61 -84 l0 -46 53 6 c108 11 293 144 350 251 58 110 69
155 74 301 3 81 0 157 -6 180 -23 92 -46 160 -53 163 -4 2 -8 9 -8 16 0 32
-138 206 -163 206 -5 0 -21 8 -35 19 -15 10 -45 24 -67 31 -22 7 -44 16 -49
21 -13 12 -73 11 -81 0z M7087 10688 c13 -87 9 -986 -4 -1033 -7 -22 -19 -105
-28 -185 -8 -80 -20 -154 -25 -165 -5 -11 -16 -67 -26 -125 -9 -58 -20 -109
-24 -115 -4 -5 -13 -35 -21 -65 -7 -30 -16 -59 -20 -65 -4 -5 -15 -39 -24 -75
-9 -36 -20 -69 -25 -75 -4 -5 -10 -23 -14 -40 -11 -44 -63 -160 -152 -337 -83
-166 -96 -190 -121 -225 -13 -17 -23 -34 -23 -37 0 -3 -7 -14 -16 -23 -8 -10
-54 -70 -102 -133 -89 -120 -419 -460 -446 -460 -4 0 -43 -28 -86 -62 -89 -71
-175 -128 -190 -128 -5 0 -10 -4 -10 -8 0 -4 -19 -18 -42 -30 -24 -12 -61 -33
-83 -46 -22 -14 -92 -51 -155 -83 l-115 -59 -6 -49 c-4 -28 -12 -99 -19 -160
-7 -60 -16 -114 -20 -120 -7 -10 -26 -150 -34 -253 -8 -110 14 -210 70 -312
24 -43 211 -423 232 -470 11 -25 23 -56 27 -70 4 -14 15 -43 25 -65 10 -22 23
-74 30 -115 7 -41 17 -79 21 -85 4 -5 12 -46 19 -90 31 -210 93 -306 218 -337
26 -6 49 -15 52 -19 5 -7 130 -34 230 -50 30 -4 125 -13 210 -19 85 -6 164
-16 176 -21 11 -6 42 -9 69 -7 l49 3 16 80 c16 82 66 201 94 224 9 7 16 19 16
27 0 7 33 34 73 61 39 27 73 53 74 58 1 11 -14 19 -147 83 -138 65 -178 127
-95 144 46 10 161 -5 214 -28 124 -52 269 -135 321 -182 56 -50 160 -172 160
-187 0 -4 10 -21 22 -37 12 -17 32 -52 45 -78 38 -77 46 -80 185 -90 142 -11
323 -12 356 -4 15 5 22 14 22 32 0 31 -21 92 -32 92 -4 0 -8 6 -8 13 1 35 -62
129 -135 202 -74 74 -104 96 -195 142 -19 10 -37 21 -40 25 -3 3 -37 23 -75
43 -109 57 -145 101 -113 133 22 22 158 8 223 -22 182 -87 235 -116 275 -153
l33 -31 45 49 c24 27 70 65 103 85 32 20 59 40 59 45 0 12 -65 59 -81 59 -8 0
-23 6 -34 13 -11 8 -42 20 -70 27 -27 7 -54 16 -60 20 -14 10 -122 28 -220 36
-44 4 -84 10 -90 14 -5 4 -55 11 -110 14 -143 11 -201 23 -275 59 -69 33 -183
137 -210 192 -8 17 -28 50 -45 75 -31 47 -185 349 -185 363 0 27 -44 62 -83
67 -32 4 -45 11 -57 33 -13 24 -13 30 0 55 14 25 39 41 160 105 92 49 115 62
118 70 2 4 8 7 14 7 5 0 29 14 53 30 24 17 46 30 49 30 3 0 40 23 83 52 239
160 510 447 634 673 59 106 114 230 128 290 7 27 16 54 20 60 5 5 14 42 21 80
8 39 18 75 22 82 5 6 8 20 7 30 -1 10 1 25 4 33 13 33 27 255 27 421 0 189
-15 430 -31 494 -6 22 -17 74 -25 115 -8 41 -19 84 -23 95 -5 11 -17 49 -26
85 -9 36 -21 70 -25 75 -4 6 -13 34 -20 63 -6 28 -16 54 -21 57 -5 3 -13 25
-20 48 -6 23 -18 58 -26 77 -42 94 -85 187 -93 200 -5 8 -26 49 -46 90 -21 41
-48 89 -61 106 -13 17 -23 36 -23 42 0 7 -4 12 -10 12 -5 0 -10 5 -10 10 0 13
-52 92 -117 179 -26 35 -56 77 -66 94 -34 57 -231 280 -265 301 -10 6 -11 -3
-5 -46z M8070 9426 c0 -14 4 -27 9 -30 5 -3 17 -48 26 -98 9 -51 20 -97 25
-103 4 -5 13 -59 20 -120 7 -60 17 -121 24 -134 13 -29 16 -665 2 -696 -5 -11
-10 -31 -12 -45 -12 -97 -27 -188 -34 -205 -5 -11 -16 -56 -25 -100 -10 -44
-20 -84 -24 -90 -4 -5 -14 -26 -21 -45 -30 -80 -137 -287 -185 -359 -17 -24
-35 -53 -41 -63 -31 -52 -145 -186 -241 -282 -95 -95 -281 -256 -297 -256 -10
0 -96 -64 -96 -72 0 -4 15 -8 33 -8 18 0 38 -5 43 -10 6 -6 59 -17 120 -25 60
-9 117 -20 126 -25 9 -5 97 -14 195 -20 98 -6 187 -16 197 -22 27 -15 729 -15
776 0 19 6 120 16 225 22 104 6 194 15 200 20 6 5 20 9 30 8 36 -1 280 33 300
42 11 5 49 14 85 20 36 6 72 13 80 17 8 3 24 7 35 9 46 6 172 36 190 44 11 5
49 16 85 25 36 9 74 20 85 24 11 5 43 15 70 22 28 6 55 15 60 19 6 4 26 11 45
15 19 4 52 16 73 25 21 10 52 22 70 25 18 4 41 13 52 19 11 7 45 21 75 31 30
10 57 21 60 24 3 3 23 12 45 19 22 8 58 22 80 32 22 10 61 28 86 39 25 12 50
21 55 21 20 0 369 174 569 284 11 6 22 13 25 16 3 3 21 13 40 22 19 10 60 32
90 49 30 17 98 53 150 81 124 67 134 72 140 78 3 3 55 30 115 61 61 30 146 74
190 96 121 61 212 103 224 103 6 0 11 4 11 8 0 5 19 14 43 21 23 7 51 18 62
25 11 7 38 19 60 26 22 7 49 18 60 24 11 7 40 18 65 26 25 7 50 17 55 21 6 4
39 15 75 24 36 9 70 20 75 25 6 5 28 11 50 15 22 4 54 13 70 20 17 8 66 21
109 29 44 9 84 20 90 25 6 4 47 14 91 21 44 7 85 17 91 21 6 5 82 16 170 25
87 9 170 21 183 28 34 16 738 16 772 0 13 -7 89 -20 169 -29 156 -19 158 -19
180 -28 8 -3 44 -10 80 -17 36 -6 79 -17 95 -24 33 -15 194 -40 202 -32 15 14
-15 72 -71 137 -91 107 -294 279 -370 314 -12 6 -46 26 -76 45 -115 74 -344
185 -455 221 -22 7 -44 16 -50 20 -5 4 -39 15 -75 24 -36 9 -69 20 -75 25 -5
4 -50 15 -100 25 -49 9 -95 21 -100 26 -6 4 -53 13 -105 20 -52 6 -100 16
-106 20 -6 5 -105 16 -220 25 -245 19 -667 13 -854 -11 -63 -8 -176 -22 -250
-30 -74 -9 -144 -20 -155 -25 -11 -5 -85 -16 -165 -25 -80 -9 -154 -20 -165
-25 -11 -4 -72 -13 -135 -20 -63 -7 -144 -18 -180 -26 -77 -16 -239 -34 -308
-34 -26 0 -53 -5 -59 -11 -16 -16 -790 -16 -806 0 -6 6 -36 11 -66 11 -86 0
-344 21 -366 30 -11 5 -80 16 -154 25 -74 9 -141 21 -150 25 -9 5 -68 16 -131
25 -63 10 -119 21 -125 25 -5 4 -37 13 -70 19 -33 7 -69 16 -80 21 -11 5 -56
16 -100 25 -44 10 -84 21 -90 25 -5 4 -39 13 -75 20 -36 7 -69 16 -75 20 -5 4
-37 15 -70 25 -33 9 -74 24 -92 31 -17 8 -34 14 -38 14 -4 0 -21 6 -38 14 -18
8 -53 22 -79 30 -26 9 -56 20 -65 25 -10 5 -45 21 -78 36 -33 14 -88 39 -122
56 -34 16 -67 29 -75 29 -7 0 -26 9 -43 20 -39 26 -45 25 -45 -4z M8261 5429
c-62 -33 -103 -69 -133 -117 l-21 -33 28 -55 c15 -30 44 -72 64 -94 34 -38 40
-40 121 -50 46 -5 122 -10 167 -10 81 0 83 1 83 24 0 13 -6 37 -14 53 -8 15
-19 39 -26 53 -24 52 -48 89 -99 154 -45 56 -101 109 -113 105 -1 -1 -27 -14
-57 -30z M7035 5151 c-45 -28 -109 -93 -123 -124 -7 -15 -12 -43 -12 -62 0
-19 -4 -37 -10 -40 -5 -3 -10 -21 -10 -39 0 -33 1 -34 59 -45 33 -6 63 -11 68
-10 4 1 15 -1 23 -4 19 -9 312 -26 323 -20 11 7 3 42 -35 141 -65 169 -192
260 -283 203z M3855 5143 c-11 -3 -32 -14 -47 -24 -14 -11 -29 -19 -33 -19
-14 0 -105 -103 -111 -126 -10 -39 5 -112 29 -139 18 -20 34 -26 87 -31 36 -3
74 -10 85 -15 11 -5 76 -8 145 -7 l125 3 -2 29 c-3 34 -75 183 -119 246 -19
27 -51 55 -77 68 -46 23 -48 23 -82 15z M2471 4884 c-25 -13 -47 -27 -50 -32
-3 -5 -14 -11 -23 -15 -9 -3 -35 -38 -58 -78 -34 -57 -43 -82 -44 -123 l-1
-51 50 -8 c28 -5 57 -12 66 -17 9 -5 61 -14 115 -20 54 -7 107 -16 116 -21 10
-5 42 -11 70 -12 l53 -2 -2 43 c-1 24 -6 49 -11 55 -5 7 -12 27 -15 45 -8 41
-53 137 -86 182 -61 84 -101 96 -180 54z"/>
</g>
</svg>
