<svg width="300" height="300" viewBox="0 0 300 300" fill="none" xmlns="http://www.w3.org/2000/svg">
  <path d="M150,50 L183.3,83.3 L175,100 L150,75 Z" fill="black" fill-opacity="0.61"/>
  <path d="M183.3,83.3 L216.7,116.7 L200,125 L175,100 Z" fill="black" fill-opacity="0.54"/>
  <path d="M216.7,116.7 L250,150 L225,150 L200,125 Z" fill="black" fill-opacity="0.46"/>
  <path d="M250,150 L216.7,183.3 L200,175 L225,150 Z" fill="black" fill-opacity="0.38"/>
  <path d="M216.7,183.3 L183.3,216.7 L175,200 L200,175 Z" fill="black" fill-opacity="0.3"/>
  <path d="M183.3,216.7 L150,250 L150,225 L175,200 Z" fill="black" fill-opacity="0.23"/>
  <path d="M150,250 L116.7,216.7 L125,200 L150,225 Z" fill="black" fill-opacity="0.15"/>
  <path d="M116.7,216.7 L83.3,183.3 L100,175 L125,200 Z" fill="black"/>
  <path d="M83.3,183.3 L50,150 L75,150 L100,175 Z" fill="black" fill-opacity="0.92"/>
  <path d="M50,150 L83.3,116.7 L100,125 L75,150 Z" fill="black" fill-opacity="0.85"/>
  <path d="M83.3,116.7 L116.7,83.3 L125,100 L100,125 Z" fill="black" fill-opacity="0.77"/>
  <path d="M116.7,83.3 L150,50 L150,75 L125,100 Z" fill="black" fill-opacity="0.69"/>
  <path d="M150,100 L200,150 L150,200 L100,150 Z M150,125 L125,150 L150,175 L175,150 Z" fill="black"/>
</svg>
